{
  "accessors": [
    {
      "bufferView": 2,
      "componentType": 5126,
      "count": 24036,
      "max": [
        20.756134033203125,
        -0.0,
        40.187416076660156
      ],
      "min": [
        -38.81563186645508,
        -82.02198791503906,
        -32.283416748046875
      ],
      "type": "VEC3"
    },
    {
      "bufferView": 2,
      "byteOffset": 288432,
      "componentType": 5126,
      "count": 24036,
      "max": [
        1.0,
        1.0,
        1.0
      ],
      "min": [
        -1.0,
        -1.0,
        -1.0
      ],
      "type": "VEC3"
    },
    {
      "bufferView": 1,
      "componentType": 5126,
      "count": 24036,
      "max": [
        0.993927001953125,
        0.9968540072441101
      ],
      "min": [
        -1.700000029813964e-05,
        -2.300000051036477e-05
      ],
      "type": "VEC2"
    },
    {
      "bufferView": 0,
      "componentType": 5125,
      "count": 82950,
      "type": "SCALAR"
    }
  ],
  "asset": {
    "extras": {
      "author": "Nyilonelycompany (https://sketchfab.com/Nyilonelycompany)",
      "license": "CC-BY-NC-4.0 (http://creativecommons.org/licenses/by-nc/4.0/)",
      "source": "https://sketchfab.com/3d-models/kanye-west-f68cb5167781492ea2ad881fac3f8bba",
      "title": "Kanye West"
    },
    "generator": "Sketchfab-16.54.0",
    "version": "2.0"
  },
  "bufferViews": [
    {
      "buffer": 0,
      "byteLength": 331800,
      "name": "floatBufferViews",
      "target": 34963
    },
    {
      "buffer": 0,
      "byteLength": 192288,
      "byteOffset": 331800,
      "byteStride": 8,
      "name": "floatBufferViews",
      "target": 34962
    },
    {
      "buffer": 0,
      "byteLength": 576864,
      "byteOffset": 524088,
      "byteStride": 12,
      "name": "floatBufferViews",
      "target": 34962
    }
  ],
  "buffers": [
    {
      "byteLength": 1100952,
      "uri": "scene.bin"
    }
  ],
  "extensionsUsed": [
    "KHR_materials_unlit"
  ],
  "images": [
    {
      "uri": "textures/Mat_0_baseColor.jpeg"
    }
  ],
  "materials": [
    {
      "doubleSided": true,
      "extensions": {
        "KHR_materials_unlit": {}
      },
      "name": "Mat_0",
      "pbrMetallicRoughness": {
        "baseColorTexture": {
          "index": 0
        },
        "metallicFactor": 0.0
      }
    }
  ],
  "meshes": [
    {
      "name": "Object_0",
      "primitives": [
        {
          "attributes": {
            "NORMAL": 1,
            "POSITION": 0,
            "TEXCOORD_0": 2
          },
          "indices": 3,
          "material": 0,
          "mode": 4
        }
      ]
    }
  ],
  "nodes": [
    {
      "children": [
        1
      ],
      "matrix": [
        0.02025575563311577,
        0.0,
        0.0,
        0.0,
        0.0,
        -0.020165233117931836,
        -0.0019128539216180563,
        0.0,
        0.0,
        0.0019128539216180563,
        -0.020165233117931836,
        0.0,
        0.0,
        0.0,
        0.0,
        1.0
      ],
      "name": "Sketchfab_model"
    },
    {
      "children": [
        2
      ],
      "name": "model.obj.cleaner.materialmerger.gles"
    },
    {
      "mesh": 0,
      "name": "Object_2"
    }
  ],
  "samplers": [
    {
      "magFilter": 9729,
      "minFilter": 9987,
      "wrapS": 10497,
      "wrapT": 10497
    }
  ],
  "scene": 0,
  "scenes": [
    {
      "name": "Sketchfab_Scene",
      "nodes": [
        0
      ]
    }
  ],
  "textures": [
    {
      "sampler": 0,
      "source": 0
    }
  ]
}
