{
  "accessors": [
    {
      "bufferView": 2,
      "componentType": 5126,
      "count": 1371,
      "max": [
        0.07463099807500839,
        0.10062400251626968,
        0.10294300317764282
      ],
      "min": [
        -0.07463099807500839,
        -0.002899999963119626,
        -0.08358000218868256
      ],
      "type": "VEC3"
    },
    {
      "bufferView": 2,
      "byteOffset": 16452,
      "componentType": 5126,
      "count": 1371,
      "max": [
        0.9906243681907654,
        0.21483910083770752,
        0.9990370273590088
      ],
      "min": [
        -0.9906243681907654,
        -0.9991700053215027,
        -0.993179976940155
      ],
      "type": "VEC3"
    },
    {
      "bufferView": 1,
      "componentType": 5126,
      "count": 1371,
      "max": [
        0.936926007270813,
        0.9089099764823914
      ],
      "min": [
        0.06307400017976761,
        0.09365600347518921
      ],
      "type": "VEC2"
    },
    {
      "bufferView": 0,
      "componentType": 5125,
      "count": 7554,
      "type": "SCALAR"
    }
  ],
  "asset": {
    "extras": {
      "author": "lama321 (https://sketchfab.com/lama321)",
      "license": "CC-BY-4.0 (http://creativecommons.org/licenses/by/4.0/)",
      "source": "https://sketchfab.com/3d-models/face-mesh-ddb3dcde7015455ab2c7ad785d097840",
      "title": "Face Mesh"
    },
    "generator": "Sketchfab-12.66.0",
    "version": "2.0"
  },
  "bufferViews": [
    {
      "buffer": 0,
      "byteLength": 30216,
      "name": "floatBufferViews",
      "target": 34963
    },
    {
      "buffer": 0,
      "byteLength": 10968,
      "byteOffset": 30216,
      "byteStride": 8,
      "name": "floatBufferViews",
      "target": 34962
    },
    {
      "buffer": 0,
      "byteLength": 32904,
      "byteOffset": 41184,
      "byteStride": 12,
      "name": "floatBufferViews",
      "target": 34962
    }
  ],
  "buffers": [
    {
      "byteLength": 74088,
      "uri": "scene.bin"
    }
  ],
  "materials": [
    {
      "doubleSided": true,
      "name": "material_0",
      "pbrMetallicRoughness": {
        "baseColorFactor": [
          0.1471590909090909,
          0.1471590909090909,
          0.1471590909090909,
          1.0
        ],
        "metallicFactor": 0.0,
        "roughnessFactor": 0.6
      }
    }
  ],
  "meshes": [
    {
      "name": "Object_0",
      "primitives": [
        {
          "attributes": {
            "NORMAL": 1,
            "POSITION": 0,
            "TEXCOORD_0": 2
          },
          "indices": 3,
          "material": 0,
          "mode": 4
        }
      ]
    }
  ],
  "nodes": [
    {
      "children": [
        1
      ],
      "matrix": [
        1.0,
        0.0,
        0.0,
        0.0,
        0.0,
        2.220446049250313e-16,
        -1.0,
        0.0,
        0.0,
        1.0,
        2.220446049250313e-16,
        0.0,
        0.0,
        0.0,
        0.0,
        1.0
      ],
      "name": "Sketchfab_model"
    },
    {
      "children": [
        2
      ],
      "name": "c07c327f62804a31911c8a892093bc96.obj.cleaner.materialmerger.gles"
    },
    {
      "mesh": 0,
      "name": "Object_2"
    }
  ],
  "scene": 0,
  "scenes": [
    {
      "name": "Sketchfab_Scene",
      "nodes": [
        0
      ]
    }
  ]
}
